<?xml version="1.0" encoding="UTF-8"?>
<svg width="13px" height="22px" viewBox="0 0 13 22" version="1.1" xmlns="http://www.w3.org/2000/svg" xmlns:xlink="http://www.w3.org/1999/xlink">
    <title>Path</title>
    <g id="Page-1" stroke="none" stroke-width="1" fill="none" fill-rule="evenodd">
        <g id="1608509_angle_right_icon" fill="#E85C4B" fill-rule="nonzero">
            <path d="M12.8296593,11 C12.8296593,11.1910488 12.756179,11.3600534 12.6092184,11.507014 L2.33667335,21.7795591 C2.18971276,21.9265197 2.02070808,22 1.82965932,22 C1.63861055,22 1.46960588,21.9265197 1.32264529,21.7795591 L0.220440882,20.6773547 C0.0734802939,20.5303941 0,20.3613894 0,20.1703407 C0,19.9792919 0.0734802939,19.8102872 0.220440882,19.6633267 L8.88376754,11 L0.220440882,2.33667335 C0.0734802939,2.18971276 0,2.02070808 0,1.82965932 C0,1.63861055 0.0734802939,1.46960588 0.220440882,1.32264529 L1.32264529,0.220440882 C1.46960588,0.0734802939 1.63861055,0 1.82965932,0 C2.02070808,0 2.18971276,0.0734802939 2.33667335,0.220440882 L12.6092184,10.492986 C12.756179,10.6399466 12.8296593,10.8089512 12.8296593,11 Z" id="Path"></path>
        </g>
    </g>
</svg>