<svg width="198" height="21" viewBox="0 0 198 21" fill="none" xmlns="http://www.w3.org/2000/svg">
<path opacity="0.05" fill-rule="evenodd" clip-rule="evenodd" d="M0.50995 17.9873C-0.169984 18.6765 -0.169983 19.7939 0.50995 20.4831C1.18988 21.1723 2.29227 21.1723 2.97221 20.4831L20.208 3.01267C20.8879 2.32348 20.888 1.20608 20.208 0.516892C19.5281 -0.172298 18.4257 -0.172297 17.7458 0.516892L0.50995 17.9873ZM20.208 17.9873C19.528 18.6765 19.528 19.7939 20.208 20.4831C20.8879 21.1723 21.9903 21.1723 22.6702 20.4831L39.906 3.01267C40.586 2.32348 40.586 1.20608 39.906 0.516892C39.2261 -0.172298 38.1237 -0.172297 37.4438 0.516892L20.208 17.9873ZM39.906 20.4831C39.226 19.7939 39.226 18.6765 39.906 17.9873L57.1418 0.516892C57.8217 -0.172297 58.9241 -0.172298 59.604 0.516892C60.284 1.20608 60.284 2.32348 59.604 3.01267L42.3682 20.4831C41.6883 21.1723 40.5859 21.1723 39.906 20.4831ZM59.604 17.9873C58.924 18.6765 58.924 19.7939 59.604 20.4831C60.2839 21.1723 61.3863 21.1723 62.0662 20.4831L79.302 3.01267C79.982 2.32348 79.982 1.20608 79.302 0.516892C78.6221 -0.172298 77.5197 -0.172297 76.8398 0.516892L59.604 17.9873ZM79.302 20.4831C78.622 19.7939 78.622 18.6765 79.302 17.9873L96.5378 0.516892C97.2177 -0.172297 98.3201 -0.172298 99 0.516892C99.68 1.20608 99.68 2.32348 99 3.01267L81.7642 20.4831C81.0843 21.1723 79.9819 21.1723 79.302 20.4831ZM99 17.9873C98.32 18.6765 98.32 19.7939 99 20.4831C99.6799 21.1723 100.782 21.1723 101.462 20.4831L118.698 3.01267C119.378 2.32348 119.378 1.20608 118.698 0.516892C118.018 -0.172298 116.916 -0.172297 116.236 0.516892L99 17.9873ZM118.698 20.4831C118.018 19.7939 118.018 18.6765 118.698 17.9873L135.934 0.516892C136.614 -0.172297 137.716 -0.172298 138.396 0.516892C139.076 1.20608 139.076 2.32348 138.396 3.01267L121.16 20.4831C120.48 21.1723 119.378 21.1723 118.698 20.4831ZM138.396 17.9873C137.716 18.6765 137.716 19.7939 138.396 20.4831C139.076 21.1723 140.178 21.1723 140.858 20.4831L158.094 3.01267C158.774 2.32348 158.774 1.20608 158.094 0.516892C157.414 -0.172298 156.312 -0.172297 155.632 0.516892L138.396 17.9873ZM158.094 20.4831C157.414 19.7939 157.414 18.6765 158.094 17.9873L175.33 0.516892C176.01 -0.172297 177.112 -0.172298 177.792 0.516892C178.472 1.20608 178.472 2.32348 177.792 3.01267L160.556 20.4831C159.876 21.1723 158.774 21.1723 158.094 20.4831ZM177.792 17.9873C177.112 18.6765 177.112 19.7939 177.792 20.4831C178.472 21.1723 179.574 21.1723 180.254 20.4831L197.49 3.01267C198.17 2.32348 198.17 1.20608 197.49 0.516892C196.81 -0.172298 195.708 -0.172297 195.028 0.516892L177.792 17.9873Z" fill="white"/>
</svg>
