<svg width="225" height="298" viewBox="0 0 225 298" fill="none" xmlns="http://www.w3.org/2000/svg">
<g opacity="0.05">
<path d="M216.5 286.062L225 288.66L216.5 291.258L210 297.32L212 288.66L210 280L216.5 286.062Z" fill="white"/>
<path d="M216.5 246.062L225 248.66L216.5 251.258L210 257.32L212 248.66L210 240L216.5 246.062Z" fill="white"/>
<path d="M225 208.66L216.5 206.062L210 200L212 208.66L210 217.32L216.5 211.258L225 208.66Z" fill="white"/>
<path d="M216.5 166.062L225 168.66L216.5 171.258L210 177.32L212 168.66L210 160L216.5 166.062Z" fill="white"/>
<path d="M225 128.66L216.5 126.062L210 120L212 128.66L210 137.32L216.5 131.258L225 128.66Z" fill="white"/>
<path d="M216.5 86.062L225 88.6601L216.5 91.2581L210 97.3203L212 88.6601L210 79.9998L216.5 86.062Z" fill="white"/>
<path d="M225 48.6601L216.5 46.062L210 39.9998L212 48.6601L210 57.3203L216.5 51.2581L225 48.6601Z" fill="white"/>
<path d="M216.5 6.06198L225 8.66006L216.5 11.2581L210 17.3203L212 8.66006L210 -0.000183761L216.5 6.06198Z" fill="white"/>
<path d="M195 288.66L186.5 286.062L180 280L182 288.66L180 297.32L186.5 291.258L195 288.66Z" fill="white"/>
<path d="M186.5 246.062L195 248.66L186.5 251.258L180 257.32L182 248.66L180 240L186.5 246.062Z" fill="white"/>
<path d="M195 208.66L186.5 206.062L180 200L182 208.66L180 217.32L186.5 211.258L195 208.66Z" fill="white"/>
<path d="M186.5 166.062L195 168.66L186.5 171.258L180 177.32L182 168.66L180 160L186.5 166.062Z" fill="white"/>
<path d="M195 128.66L186.5 126.062L180 120L182 128.66L180 137.32L186.5 131.258L195 128.66Z" fill="white"/>
<path d="M186.5 86.062L195 88.6601L186.5 91.2581L180 97.3203L182 88.6601L180 79.9998L186.5 86.062Z" fill="white"/>
<path d="M195 48.6601L186.5 46.062L180 39.9998L182 48.6601L180 57.3203L186.5 51.2581L195 48.6601Z" fill="white"/>
<path d="M186.5 6.06198L195 8.66006L186.5 11.2581L180 17.3203L182 8.66006L180 -0.000185072L186.5 6.06198Z" fill="white"/>
<path d="M165 288.66L156.5 286.062L150 280L152 288.66L150 297.32L156.5 291.258L165 288.66Z" fill="white"/>
<path d="M156.5 246.062L165 248.66L156.5 251.258L150 257.32L152 248.66L150 240L156.5 246.062Z" fill="white"/>
<path d="M165 208.66L156.5 206.062L150 200L152 208.66L150 217.32L156.5 211.258L165 208.66Z" fill="white"/>
<path d="M156.5 166.062L165 168.66L156.5 171.258L150 177.32L152 168.66L150 160L156.5 166.062Z" fill="white"/>
<path d="M165 128.66L156.5 126.062L150 120L152 128.66L150 137.32L156.5 131.258L165 128.66Z" fill="white"/>
<path d="M156.5 86.062L165 88.6601L156.5 91.2581L150 97.3203L152 88.6601L150 79.9998L156.5 86.062Z" fill="white"/>
<path d="M165 48.6601L156.5 46.062L150 39.9998L152 48.6601L150 57.3203L156.5 51.2581L165 48.6601Z" fill="white"/>
<path d="M156.5 6.06198L165 8.66006L156.5 11.2581L150 17.3203L152 8.66006L150 -0.000186384L156.5 6.06198Z" fill="white"/>
<path d="M135 288.66L126.5 286.062L120 280L122 288.66L120 297.32L126.5 291.258L135 288.66Z" fill="white"/>
<path d="M126.5 246.062L135 248.66L126.5 251.258L120 257.32L122 248.66L120 240L126.5 246.062Z" fill="white"/>
<path d="M135 208.66L126.5 206.062L120 200L122 208.66L120 217.32L126.5 211.258L135 208.66Z" fill="white"/>
<path d="M126.5 166.062L135 168.66L126.5 171.258L120 177.32L122 168.66L120 160L126.5 166.062Z" fill="white"/>
<path d="M135 128.66L126.5 126.062L120 120L122 128.66L120 137.32L126.5 131.258L135 128.66Z" fill="white"/>
<path d="M126.5 86.062L135 88.6601L126.5 91.2581L120 97.3203L122 88.6601L120 79.9998L126.5 86.062Z" fill="white"/>
<path d="M135 48.6601L126.5 46.062L120 39.9998L122 48.6601L120 57.3203L126.5 51.2581L135 48.6601Z" fill="white"/>
<path d="M126.5 6.06198L135 8.66006L126.5 11.2581L120 17.3203L122 8.66006L120 -0.000187695L126.5 6.06198Z" fill="white"/>
<path d="M105 288.66L96.5 286.062L90 280L92 288.66L90 297.32L96.5 291.258L105 288.66Z" fill="white"/>
<path d="M96.5 246.062L105 248.66L96.5 251.258L90 257.32L92 248.66L90 240L96.5 246.062Z" fill="white"/>
<path d="M105 208.66L96.5 206.062L90 200L92 208.66L90 217.32L96.5 211.258L105 208.66Z" fill="white"/>
<path d="M96.5 166.062L105 168.66L96.5 171.258L90 177.32L92 168.66L90 160L96.5 166.062Z" fill="white"/>
<path d="M105 128.66L96.5 126.062L90 120L92 128.66L90 137.32L96.5 131.258L105 128.66Z" fill="white"/>
<path d="M96.5 86.062L105 88.6601L96.5 91.2581L90 97.3203L92 88.6601L90 79.9998L96.5 86.062Z" fill="white"/>
<path d="M105 48.6601L96.5 46.062L90 39.9998L92 48.6601L90 57.3203L96.5 51.2581L105 48.6601Z" fill="white"/>
<path d="M96.5 6.06198L105 8.66006L96.5 11.2581L90 17.3203L92 8.66006L90 -0.000189007L96.5 6.06198Z" fill="white"/>
<path d="M75 288.66L66.5 286.062L60 280L62 288.66L60 297.32L66.5 291.258L75 288.66Z" fill="white"/>
<path d="M66.5 246.062L75 248.66L66.5 251.258L60 257.32L62 248.66L60 240L66.5 246.062Z" fill="white"/>
<path d="M75 208.66L66.5 206.062L60 200L62 208.66L60 217.32L66.5 211.258L75 208.66Z" fill="white"/>
<path d="M66.5 166.062L75 168.66L66.5 171.258L60 177.32L62 168.66L60 160L66.5 166.062Z" fill="white"/>
<path d="M75 128.66L66.5 126.062L60 120L62 128.66L60 137.32L66.5 131.258L75 128.66Z" fill="white"/>
<path d="M66.5 86.062L75 88.6601L66.5 91.2581L60 97.3203L62 88.6601L60 79.9998L66.5 86.062Z" fill="white"/>
<path d="M75 48.6601L66.5 46.062L60 39.9998L62 48.6601L60 57.3203L66.5 51.2581L75 48.6601Z" fill="white"/>
<path d="M66.5 6.06197L75 8.66006L66.5 11.2581L60 17.3203L62 8.66006L60 -0.000190318L66.5 6.06197Z" fill="white"/>
<path d="M45 288.66L36.5 286.062L30 280L32 288.66L30 297.32L36.5 291.258L45 288.66Z" fill="white"/>
<path d="M36.5 246.062L45 248.66L36.5 251.258L30 257.32L32 248.66L30 240L36.5 246.062Z" fill="white"/>
<path d="M45 208.66L36.5 206.062L30 200L32 208.66L30 217.32L36.5 211.258L45 208.66Z" fill="white"/>
<path d="M36.5 166.062L45 168.66L36.5 171.258L30 177.32L32 168.66L30 160L36.5 166.062Z" fill="white"/>
<path d="M45 128.66L36.5 126.062L30 120L32 128.66L30 137.32L36.5 131.258L45 128.66Z" fill="white"/>
<path d="M36.5 86.062L45 88.6601L36.5 91.2581L30 97.3203L32 88.6601L30 79.9998L36.5 86.062Z" fill="white"/>
<path d="M45 48.6601L36.5 46.062L30 39.9998L32 48.6601L30 57.3203L36.5 51.2581L45 48.6601Z" fill="white"/>
<path d="M36.5 6.06197L45 8.66006L36.5 11.2581L30 17.3203L32 8.66006L30 -0.000191629L36.5 6.06197Z" fill="white"/>
<path d="M15 288.66L6.5 286.062L7.57104e-07 280L2 288.66L0 297.32L6.5 291.258L15 288.66Z" fill="white"/>
<path d="M6.5 246.062L15 248.66L6.5 251.258L1.74846e-06 257.32L2 248.66L2.50556e-06 240L6.5 246.062Z" fill="white"/>
<path d="M15 208.66L6.5 206.062L4.25401e-06 200L2 208.66L3.49691e-06 217.32L6.5 211.258L15 208.66Z" fill="white"/>
<path d="M6.50001 166.062L15 168.66L6.50001 171.258L5.24537e-06 177.32L2.00001 168.66L6.00247e-06 160L6.50001 166.062Z" fill="white"/>
<path d="M15 128.66L6.50001 126.062L7.75093e-06 120L2.00001 128.66L6.99382e-06 137.32L6.50001 131.258L15 128.66Z" fill="white"/>
<path d="M6.50001 86.062L15 88.6601L6.50001 91.2581L8.74228e-06 97.3203L2.00001 88.6601L9.49938e-06 79.9998L6.50001 86.062Z" fill="white"/>
<path d="M15 48.6601L6.50001 46.062L1.12478e-05 39.9998L2.00001 48.6601L1.04907e-05 57.3203L6.50001 51.2581L15 48.6601Z" fill="white"/>
<path d="M6.50001 6.06197L15 8.66006L6.50001 11.2581L1.22392e-05 17.3203L2.00001 8.66005L1.29963e-05 -0.000192941L6.50001 6.06197Z" fill="white"/>
</g>
</svg>
