<svg width="225" height="298" viewBox="0 0 225 298" fill="none" xmlns="http://www.w3.org/2000/svg">
<g opacity="0.05">
<path d="M8.5 286.062L-3.78552e-07 288.66L8.5 291.258L15 297.321L13 288.66L15 280L8.5 286.062Z" fill="white"/>
<path d="M8.5 246.062L-2.12701e-06 248.66L8.5 251.258L15 257.321L13 248.66L15 240L8.5 246.062Z" fill="white"/>
<path d="M-3.87546e-06 208.66L8.5 206.062L15 200L13 208.66L15 217.321L8.5 211.258L-3.87546e-06 208.66Z" fill="white"/>
<path d="M8.49999 166.062L-5.62392e-06 168.66L8.49999 171.258L15 177.321L13 168.66L15 160L8.49999 166.062Z" fill="white"/>
<path d="M-7.37237e-06 128.66L8.49999 126.062L15 120L13 128.66L15 137.321L8.49999 131.258L-7.37237e-06 128.66Z" fill="white"/>
<path d="M8.49999 86.0622L-9.12083e-06 88.6603L8.49999 91.2584L15 97.3206L13 88.6603L15 80.0001L8.49999 86.0622Z" fill="white"/>
<path d="M-1.08693e-05 48.6603L8.49999 46.0622L15 40.0001L13 48.6603L15 57.3206L8.49999 51.2584L-1.08693e-05 48.6603Z" fill="white"/>
<path d="M8.49999 6.06222L-1.26177e-05 8.66031L8.49999 11.2584L15 17.3206L13 8.66031L15 6.03795e-05L8.49999 6.06222Z" fill="white"/>
<path d="M30 288.66L38.5 286.062L45 280L43 288.66L45 297.321L38.5 291.258L30 288.66Z" fill="white"/>
<path d="M38.5 246.062L30 248.66L38.5 251.258L45 257.321L43 248.66L45 240L38.5 246.062Z" fill="white"/>
<path d="M30 208.66L38.5 206.062L45 200L43 208.66L45 217.321L38.5 211.258L30 208.66Z" fill="white"/>
<path d="M38.5 166.062L30 168.66L38.5 171.258L45 177.321L43 168.66L45 160L38.5 166.062Z" fill="white"/>
<path d="M30 128.66L38.5 126.062L45 120L43 128.66L45 137.321L38.5 131.258L30 128.66Z" fill="white"/>
<path d="M38.5 86.0622L30 88.6603L38.5 91.2584L45 97.3206L43 88.6603L45 80.0001L38.5 86.0622Z" fill="white"/>
<path d="M30 48.6603L38.5 46.0622L45 40.0001L43 48.6603L45 57.3206L38.5 51.2584L30 48.6603Z" fill="white"/>
<path d="M38.5 6.06222L30 8.66031L38.5 11.2584L45 17.3206L43 8.66031L45 5.90681e-05L38.5 6.06222Z" fill="white"/>
<path d="M60 288.66L68.5 286.062L75 280L73 288.66L75 297.321L68.5 291.258L60 288.66Z" fill="white"/>
<path d="M68.5 246.062L60 248.66L68.5 251.258L75 257.321L73 248.66L75 240L68.5 246.062Z" fill="white"/>
<path d="M60 208.66L68.5 206.062L75 200L73 208.66L75 217.321L68.5 211.258L60 208.66Z" fill="white"/>
<path d="M68.5 166.062L60 168.66L68.5 171.258L75 177.321L73 168.66L75 160L68.5 166.062Z" fill="white"/>
<path d="M60 128.66L68.5 126.062L75 120L73 128.66L75 137.321L68.5 131.258L60 128.66Z" fill="white"/>
<path d="M68.5 86.0622L60 88.6603L68.5 91.2584L75 97.3206L73 88.6603L75 80.0001L68.5 86.0622Z" fill="white"/>
<path d="M60 48.6603L68.5 46.0622L75 40.0001L73 48.6603L75 57.3206L68.5 51.2584L60 48.6603Z" fill="white"/>
<path d="M68.5 6.06222L60 8.66031L68.5 11.2584L75 17.3206L73 8.66031L75 5.77568e-05L68.5 6.06222Z" fill="white"/>
<path d="M90 288.66L98.5 286.062L105 280L103 288.66L105 297.321L98.5 291.258L90 288.66Z" fill="white"/>
<path d="M98.5 246.062L90 248.66L98.5 251.258L105 257.321L103 248.66L105 240L98.5 246.062Z" fill="white"/>
<path d="M90 208.66L98.5 206.062L105 200L103 208.66L105 217.321L98.5 211.258L90 208.66Z" fill="white"/>
<path d="M98.5 166.062L90 168.66L98.5 171.258L105 177.321L103 168.66L105 160L98.5 166.062Z" fill="white"/>
<path d="M90 128.66L98.5 126.062L105 120L103 128.66L105 137.321L98.5 131.258L90 128.66Z" fill="white"/>
<path d="M98.5 86.0622L90 88.6603L98.5 91.2584L105 97.3206L103 88.6603L105 80.0001L98.5 86.0622Z" fill="white"/>
<path d="M90 48.6603L98.5 46.0622L105 40.0001L103 48.6603L105 57.3206L98.5 51.2584L90 48.6603Z" fill="white"/>
<path d="M98.5 6.06222L90 8.6603L98.5 11.2584L105 17.3206L103 8.6603L105 5.64455e-05L98.5 6.06222Z" fill="white"/>
<path d="M120 288.66L128.5 286.062L135 280L133 288.66L135 297.321L128.5 291.258L120 288.66Z" fill="white"/>
<path d="M128.5 246.062L120 248.66L128.5 251.258L135 257.321L133 248.66L135 240L128.5 246.062Z" fill="white"/>
<path d="M120 208.66L128.5 206.062L135 200L133 208.66L135 217.321L128.5 211.258L120 208.66Z" fill="white"/>
<path d="M128.5 166.062L120 168.66L128.5 171.258L135 177.321L133 168.66L135 160L128.5 166.062Z" fill="white"/>
<path d="M120 128.66L128.5 126.062L135 120L133 128.66L135 137.321L128.5 131.258L120 128.66Z" fill="white"/>
<path d="M128.5 86.0622L120 88.6603L128.5 91.2584L135 97.3206L133 88.6603L135 80.0001L128.5 86.0622Z" fill="white"/>
<path d="M120 48.6603L128.5 46.0622L135 40.0001L133 48.6603L135 57.3206L128.5 51.2584L120 48.6603Z" fill="white"/>
<path d="M128.5 6.06222L120 8.6603L128.5 11.2584L135 17.3206L133 8.6603L135 5.51341e-05L128.5 6.06222Z" fill="white"/>
<path d="M150 288.66L158.5 286.062L165 280L163 288.66L165 297.321L158.5 291.258L150 288.66Z" fill="white"/>
<path d="M158.5 246.062L150 248.66L158.5 251.258L165 257.321L163 248.66L165 240L158.5 246.062Z" fill="white"/>
<path d="M150 208.66L158.5 206.062L165 200L163 208.66L165 217.321L158.5 211.258L150 208.66Z" fill="white"/>
<path d="M158.5 166.062L150 168.66L158.5 171.258L165 177.321L163 168.66L165 160L158.5 166.062Z" fill="white"/>
<path d="M150 128.66L158.5 126.062L165 120L163 128.66L165 137.321L158.5 131.258L150 128.66Z" fill="white"/>
<path d="M158.5 86.0622L150 88.6603L158.5 91.2584L165 97.3205L163 88.6603L165 80.0001L158.5 86.0622Z" fill="white"/>
<path d="M150 48.6603L158.5 46.0622L165 40.0001L163 48.6603L165 57.3205L158.5 51.2584L150 48.6603Z" fill="white"/>
<path d="M158.5 6.06222L150 8.6603L158.5 11.2584L165 17.3205L163 8.6603L165 5.38228e-05L158.5 6.06222Z" fill="white"/>
<path d="M180 288.66L188.5 286.062L195 280L193 288.66L195 297.321L188.5 291.258L180 288.66Z" fill="white"/>
<path d="M188.5 246.062L180 248.66L188.5 251.258L195 257.321L193 248.66L195 240L188.5 246.062Z" fill="white"/>
<path d="M180 208.66L188.5 206.062L195 200L193 208.66L195 217.321L188.5 211.258L180 208.66Z" fill="white"/>
<path d="M188.5 166.062L180 168.66L188.5 171.258L195 177.321L193 168.66L195 160L188.5 166.062Z" fill="white"/>
<path d="M180 128.66L188.5 126.062L195 120L193 128.66L195 137.321L188.5 131.258L180 128.66Z" fill="white"/>
<path d="M188.5 86.0622L180 88.6603L188.5 91.2584L195 97.3205L193 88.6603L195 80.0001L188.5 86.0622Z" fill="white"/>
<path d="M180 48.6603L188.5 46.0622L195 40.0001L193 48.6603L195 57.3205L188.5 51.2584L180 48.6603Z" fill="white"/>
<path d="M188.5 6.06222L180 8.6603L188.5 11.2584L195 17.3205L193 8.6603L195 5.25114e-05L188.5 6.06222Z" fill="white"/>
<path d="M210 288.66L218.5 286.062L225 280L223 288.66L225 297.321L218.5 291.258L210 288.66Z" fill="white"/>
<path d="M218.5 246.062L210 248.66L218.5 251.258L225 257.321L223 248.66L225 240L218.5 246.062Z" fill="white"/>
<path d="M210 208.66L218.5 206.062L225 200L223 208.66L225 217.321L218.5 211.258L210 208.66Z" fill="white"/>
<path d="M218.5 166.062L210 168.66L218.5 171.258L225 177.321L223 168.66L225 160L218.5 166.062Z" fill="white"/>
<path d="M210 128.66L218.5 126.062L225 120L223 128.66L225 137.321L218.5 131.258L210 128.66Z" fill="white"/>
<path d="M218.5 86.0622L210 88.6603L218.5 91.2584L225 97.3205L223 88.6603L225 80.0001L218.5 86.0622Z" fill="white"/>
<path d="M210 48.6603L218.5 46.0622L225 40.0001L223 48.6603L225 57.3205L218.5 51.2584L210 48.6603Z" fill="white"/>
<path d="M218.5 6.06222L210 8.6603L218.5 11.2584L225 17.3205L223 8.6603L225 5.12001e-05L218.5 6.06222Z" fill="white"/>
</g>
</svg>
