<svg width="8" height="17" viewBox="0 0 8 17" fill="none" xmlns="http://www.w3.org/2000/svg">
<path d="M6.90909 3.86364V12.75C6.90909 14.4577 5.60727 15.8409 4 15.8409C2.39273 15.8409 1.09091 14.4577 1.09091 12.75V3.09091C1.09091 2.02455 1.90545 1.15909 2.90909 1.15909C3.91273 1.15909 4.72727 2.02455 4.72727 3.09091V11.2045C4.72727 11.6295 4.40364 11.9773 4 11.9773C3.59636 11.9773 3.27273 11.6295 3.27273 11.2045V3.86364H2.18182V11.2045C2.18182 12.2709 2.99636 13.1364 4 13.1364C5.00364 13.1364 5.81818 12.2709 5.81818 11.2045V3.09091C5.81818 1.38318 4.51636 0 2.90909 0C1.30182 0 0 1.38318 0 3.09091V12.75C0 15.0991 1.79273 17 4 17C6.20727 17 8 15.0991 8 12.75V3.86364H6.90909Z" fill="#ffffff"/>
</svg>
