<svg width="150" height="51" viewBox="0 0 150 51" fill="none" xmlns="http://www.w3.org/2000/svg">
<path fill-rule="evenodd" clip-rule="evenodd" d="M91.8988 19.7366V46.3762H84.2636L84.264 44.2501C86.4181 41.0608 87.676 37.216 87.676 33.0777C87.676 28.9393 86.4181 25.0947 84.264 21.9054L84.2636 19.7366H91.8988ZM52.8328 19.7148C51.3825 21.3266 50.1908 23.1756 49.3229 25.1965L39.5619 25.1967V29.7398L47.9863 29.7396C47.8038 30.8251 47.7088 31.9403 47.7088 33.0777C47.7088 33.6199 47.7304 34.1569 47.7728 34.688H39.5619V41.0227L49.3505 41.0231C50.2007 42.9833 51.3558 44.7807 52.7563 46.3552L32.0121 46.3548V19.7152L52.8328 19.7148ZM135.747 19.7366C143.097 19.7366 149.055 25.6953 149.055 33.0457C149.055 40.3962 143.097 46.3548 135.747 46.3548C128.397 46.3548 122.439 40.3962 122.439 33.0457C122.439 25.6953 128.397 19.7366 135.747 19.7366ZM9.23466 19.7152L20.2609 35.104V19.7152H27.4693V46.3548H19.7809L7.21924 28.2894V46.3548H0V19.7152H9.23466ZM135.758 25.687C131.688 25.687 128.389 28.9863 128.389 33.0562C128.389 37.1261 131.688 40.4255 135.758 40.4255C139.828 40.4255 143.126 37.1261 143.126 33.0562C143.126 28.9863 139.828 25.687 135.758 25.687ZM123.015 19.7366V25.1967H96.5479V19.7366H123.015Z" fill="#040707"/>
<path d="M113.612 25.0664H105.977V46.3528H113.612V25.0664Z" fill="#040707"/>
<path d="M71.8087 23.0857L73.9653 17.9228C80.1013 20.386 84.4339 26.391 84.4339 33.4081C84.4339 42.6199 76.967 50.0875 67.756 50.0875C65.8728 50.0875 64.0625 49.7753 62.3741 49.1999L66.2746 44.415C66.7633 44.4808 67.2621 44.5148 67.7688 44.5148C73.8953 44.5148 78.8617 39.5479 78.8617 33.4209C78.8617 28.7195 75.9374 24.7011 71.8087 23.0857ZM68.2058 22.3355C68.0608 22.3299 67.9153 22.327 67.7688 22.327C61.6425 22.327 56.6761 27.2939 56.6761 33.4209C56.6761 38.0507 59.512 42.0181 63.5413 43.6807L61.0051 48.6646C55.1574 46.0727 51.0781 40.2167 51.0781 33.4081C51.0781 24.1962 58.545 16.7285 67.756 16.7285C69.3159 16.7285 70.826 16.9427 72.2582 17.3433L68.2058 22.3355Z" fill="#F36D40"/>
<path d="M60.6081 32.6278L74.7169 15L68.0185 30.8841L75.4488 32.6278L60.2891 51L68.8654 34.3663L60.6081 32.6278Z" fill="#F36D40"/>
<path d="M81.1681 23.9543C81.0158 23.9771 80.8651 24.0097 80.7169 24.0517C79.9433 24.2797 79.2881 24.7989 78.8893 25.4999C78.4904 26.201 78.3789 27.0294 78.5781 27.811C78.7774 28.5926 79.2719 29.2665 79.9577 29.691C80.6435 30.1156 81.4672 30.2578 82.2556 30.0876C83.0441 29.9175 83.7358 29.4483 84.1855 28.7787C84.6352 28.1091 84.8078 27.2912 84.6669 26.497C84.5261 25.7028 84.0829 24.9941 83.4304 24.5199C82.7779 24.0458 81.967 23.843 81.1681 23.9543V23.9543Z" fill="#FFFEF4"/>
<path d="M76.4452 14.861L76.3718 14.8504C74.4957 14.6473 71.0129 14.0547 69.1264 13.6123C65.5096 12.8707 59.4158 12.9575 55.9716 15.4566C53.8197 17.0214 52.8251 20.1572 53.9994 24.0002C58.5 20 65.6584 19.4218 71.4797 19.5223C73.129 19.4938 75.9673 19.7382 77.7863 20.2927C78.0899 20.383 78.3863 20.4956 78.6732 20.6298C79.2689 18.588 78.4352 15.5646 76.4452 14.861Z" fill="#FFFEF4"/>
<path d="M76.6114 16.6965C75.4096 16.0875 73.2757 16.1014 71.8712 15.7517C69.4747 15.2746 67.0307 14.9716 64.6332 14.6662C60.6203 14.1652 54.5243 16.5515 54.8884 20.1308C55.4557 21.2695 57.9446 19.9841 59.4937 19.569C61.9108 18.9488 64.3825 18.5656 66.8739 18.4251C69.4589 18.2635 73.1153 18.6886 75.6829 18.9888C76.7495 19.0559 77.9693 17.5123 76.6114 16.6965Z" fill="#EEF6EC"/>
<path d="M81.3989 24.0903C81.2797 24.107 81.1617 24.1319 81.0458 24.1648C80.4338 24.3416 79.9142 24.7488 79.5963 25.3008C79.2783 25.8528 79.1868 26.5066 79.341 27.1247C79.4952 27.7427 79.8831 28.2769 80.4231 28.6149C80.9631 28.9529 81.6131 29.0683 82.2364 28.9369C82.8597 28.8054 83.4078 28.4374 83.7653 27.9102C84.1229 27.383 84.2621 26.7377 84.1536 26.11C84.0451 25.4822 83.6975 24.921 83.1837 24.5444C82.67 24.1677 82.0302 24.005 81.3989 24.0903V24.0903Z" fill="#EEF6EC"/>
<path d="M75.6597 14.7647C75.9139 14.7975 76.1538 14.8273 76.3715 14.8496L76.4449 14.8602C76.6817 14.9434 76.9053 15.06 77.1091 15.2066C76.5697 14.084 75.8348 12.8592 74.957 12.2676C75.3791 13.0353 75.6195 13.8896 75.6597 14.7647V14.7647Z" fill="#A8262A"/>
<path d="M63.8742 6.23973C64.6778 6.08651 65.5079 6.15197 66.2776 6.42925C69.2942 7.38886 72.7109 8.50004 75.9149 8.99266C76.8473 9.15349 77.7887 9.25706 78.7338 9.30277C76.3972 8.7357 73.2376 7.88165 71.4645 7.1098C69.6915 6.33796 67.4963 5.42043 65.5893 5.25249C59.7029 4.93414 57.7394 10.6765 55.9732 15.462C56.8168 14.8661 57.7472 14.4037 58.7316 14.091C58.9012 11.1618 60.8635 6.84478 63.8742 6.23973Z" fill="#C12A2F"/>
<path d="M80.0872 9.6302C79.6833 9.54013 79.2199 9.42902 78.7202 9.30748C77.7751 9.26177 76.8337 9.15821 75.9012 8.99738C72.699 8.51103 69.2847 7.40926 66.264 6.43396C65.4943 6.15668 64.6642 6.09123 63.8605 6.24445C60.8498 6.84949 58.8876 11.1665 58.7179 14.0957C62.1111 12.9613 66.3319 13.047 69.1127 13.6161C70.7801 14.0062 73.6961 14.5155 75.6463 14.7693C75.6063 13.893 75.3656 13.0376 74.9428 12.269C75.8214 12.8638 76.5554 14.0854 77.0948 15.208C78.5972 16.2742 79.1829 18.8363 78.6603 20.6367C78.3799 20.5028 78.09 20.3895 77.7931 20.2977C78.1346 21.8565 78.7169 23.3526 79.5191 24.7322C79.8603 24.4141 80.2694 24.1781 80.7155 24.0419C80.8637 23.9999 81.0144 23.9674 81.1667 23.9445C81.0623 22.7338 81.1567 21.5141 81.4462 20.3339C82.5991 16.5463 85.4807 12.0099 80.0872 9.6302ZM80.1794 21.4766C80.1519 22.0888 80.2285 22.7013 80.4059 23.288C80.0875 22.6552 79.8868 21.9699 79.8136 21.2654C79.4144 18.1323 81.6765 14.834 80.8842 11.8769C83.9686 14.2064 80.1641 18.5095 80.1794 21.4766V21.4766Z" fill="#DA272D"/>
<path d="M80.8852 11.8756C81.6776 14.8327 79.4154 18.131 79.8146 21.264C79.8879 21.9686 80.0886 22.6539 80.407 23.2866C80.2296 22.7 80.153 22.0875 80.1805 21.4752C80.1652 18.5082 83.9697 14.2051 80.8852 11.8756Z" fill="#A8262A"/>
</svg>
