<svg width="16" height="17" viewBox="0 0 16 17" fill="none" xmlns="http://www.w3.org/2000/svg">
<path d="M9.97933 3.44404L10.9457 1.13041C13.6954 2.2342 15.637 4.92518 15.637 8.06972C15.637 12.1978 12.2909 15.5442 8.16321 15.5442C7.3193 15.5442 6.50805 15.4043 5.75142 15.1464L7.49937 13.0022C7.71833 13.0316 7.94188 13.0469 8.16896 13.0469C10.9144 13.0469 13.14 10.8211 13.14 8.07546C13.14 5.96865 11.8295 4.16792 9.97933 3.44404ZM8.36478 3.10784C8.2998 3.10532 8.23459 3.10405 8.16896 3.10405C5.42361 3.10405 3.19804 5.32983 3.19804 8.07546C3.19804 10.1502 4.46887 11.9281 6.27449 12.6731L5.13796 14.9065C2.51747 13.745 0.689453 11.1208 0.689453 8.06972C0.689453 3.94165 4.03555 0.595215 8.16321 0.595215C8.86224 0.595215 9.53896 0.691201 10.1807 0.870713L8.36478 3.10784Z" fill="white"/>
<path d="M4.86791 8.04666L11.1904 0.147217L8.18866 7.26528L11.5183 8.04666L4.72705 16.1819L8.56816 8.82573L4.86791 8.04666Z" fill="white"/>
</svg>
