<svg width="32" height="32" viewBox="0 0 32 32" fill="none" xmlns="http://www.w3.org/2000/svg">
<circle cx="16" cy="16" r="16" fill="#F36D40"/>
<g clip-path="url(#clip0_10_2390)">
<path d="M23.875 8.125H21.625V10.375H23.875V8.125Z" fill="white"/>
<path d="M23.875 11.5H21.625V13.75H23.875V11.5Z" fill="white"/>
<path d="M20.5 8.125H18.25V10.375H20.5V8.125Z" fill="white"/>
<path d="M20.5 11.5H18.25V13.75H20.5V11.5Z" fill="white"/>
<path d="M22.75 16V19.375H9.25V10.375H16V9.25H9.25C8.95163 9.25 8.66548 9.36853 8.4545 9.5795C8.24353 9.79048 8.125 10.0766 8.125 10.375V19.375C8.125 19.6734 8.24353 19.9595 8.4545 20.1705C8.66548 20.3815 8.95163 20.5 9.25 20.5H13.75V22.75H11.5V23.875H20.5V22.75H18.25V20.5H22.75C23.0484 20.5 23.3345 20.3815 23.5455 20.1705C23.7565 19.9595 23.875 19.6734 23.875 19.375V16H22.75ZM17.125 22.75H14.875V20.5H17.125V22.75Z" fill="white"/>
</g>
<defs>
<clipPath id="clip0_10_2390">
<rect width="18" height="18" fill="white" transform="translate(7 7)"/>
</clipPath>
</defs>
</svg>
